<svg xmlns="http://www.w3.org/2000/svg" version="1.1" xmlns:xlink="http://www.w3.org/1999/xlink" width="512" height="512" x="0" y="0" viewBox="0 0 682.667 682.667" style="enable-background:new 0 0 512 512" xml:space="preserve" class=""><g><defs><clipPath id="a" clipPathUnits="userSpaceOnUse"><path d="M0 512h512V0H0Z" fill="#f52020" opacity="1" data-original="#000000"></path></clipPath><clipPath id="b" clipPathUnits="userSpaceOnUse"><path d="M0 512h512V0H0Z" fill="#f52020" opacity="1" data-original="#000000"></path></clipPath><clipPath id="c" clipPathUnits="userSpaceOnUse"><path d="M0 512h512V0H0Z" fill="#f52020" opacity="1" data-original="#000000"></path></clipPath></defs><path d="M0 0h76.922m42.141 20H88.469L76.922 0l11.547-20h30.594M-42.141 20h30.594L0 0l-11.547-20h-30.594" style="stroke-linecap: butt; stroke-linejoin: miter; stroke-miterlimit: 22.926; stroke-dasharray: none; stroke-opacity: 1;" transform="matrix(1.33333 0 0 -1.33333 290.052 116.665)" fill="none" stroke="#F52020" stroke-width="15px" stroke-linecap="butt" stroke-linejoin="miter" stroke-miterlimit="22.926" stroke-dasharray="none" stroke-opacity="" data-original="#000000" opacity="1"></path><g clip-path="url(#a)" transform="matrix(1.33333 0 0 -1.33333 0 682.667)"><path d="M0 0v-37.499M-236.202 84.999v37.5H0V15m-236.202-52.499V69.999" style="stroke-linecap: butt; stroke-linejoin: miter; stroke-miterlimit: 22.926; stroke-dasharray: none; stroke-opacity: 1;" transform="translate(374.101 382.001)" fill="none" stroke="#F52020" stroke-width="15px" stroke-linecap="butt" stroke-linejoin="miter" stroke-miterlimit="22.926" stroke-dasharray="none" stroke-opacity="" data-original="#000000" opacity="1"></path></g><path d="M0 0h15m161.202 99.999h15" style="stroke-linecap: butt; stroke-linejoin: miter; stroke-miterlimit: 2.613; stroke-dasharray: none; stroke-opacity: 1;" transform="matrix(1.33333 0 0 -1.33333 213.866 183.332)" fill="none" stroke="#F52020" stroke-width="15px" stroke-linecap="butt" stroke-linejoin="miter" stroke-miterlimit="2.613" stroke-dasharray="none" stroke-opacity="" data-original="#000000" opacity="1"></path><g clip-path="url(#b)" transform="matrix(1.33333 0 0 -1.33333 0 682.667)"><path d="M0 0h-241v-60h497V0H15" style="stroke-linecap: butt; stroke-linejoin: miter; stroke-miterlimit: 22.926; stroke-dasharray: none; stroke-opacity: 1;" transform="translate(248.5 344.502)" fill="none" stroke="#F52020" stroke-width="15px" stroke-linecap="butt" stroke-linejoin="miter" stroke-miterlimit="22.926" stroke-dasharray="none" stroke-opacity="" data-original="#000000" opacity="1"></path><path d="M0 0v254.502m30 0V0" style="stroke-linecap: butt; stroke-linejoin: miter; stroke-miterlimit: 22.926; stroke-dasharray: none; stroke-opacity: 1;" transform="translate(22.5 30)" fill="none" stroke="#F52020" stroke-width="15px" stroke-linecap="butt" stroke-linejoin="miter" stroke-miterlimit="22.926" stroke-dasharray="none" stroke-opacity="" data-original="#000000" opacity="1"></path><path d="M0 0v254.502m30 0V0" style="stroke-linecap: butt; stroke-linejoin: miter; stroke-miterlimit: 22.926; stroke-dasharray: none; stroke-opacity: 1;" transform="translate(459.5 30)" fill="none" stroke="#F52020" stroke-width="15px" stroke-linecap="butt" stroke-linejoin="miter" stroke-miterlimit="22.926" stroke-dasharray="none" stroke-opacity="" data-original="#000000" opacity="1"></path></g><path d="M0 0h173.5m-362 0H-15" style="stroke-linecap: butt; stroke-linejoin: miter; stroke-miterlimit: 22.926; stroke-dasharray: none; stroke-opacity: 1;" transform="matrix(1.33333 0 0 -1.33333 351.333 343.33)" fill="none" stroke="#F52020" stroke-width="15px" stroke-linecap="butt" stroke-linejoin="miter" stroke-miterlimit="22.926" stroke-dasharray="none" stroke-opacity="" data-original="#000000" opacity="1"></path><path d="M0 0h362.001" style="stroke-linecap: butt; stroke-linejoin: miter; stroke-miterlimit: 22.926; stroke-dasharray: none; stroke-opacity: 1;" transform="matrix(1.33333 0 0 -1.33333 100 383.33)" fill="none" stroke="#F52020" stroke-width="15px" stroke-linecap="butt" stroke-linejoin="miter" stroke-miterlimit="22.926" stroke-dasharray="none" stroke-opacity="" data-original="#000000" opacity="1"></path><path d="M0 0h123.647v60l-22.5 22.5h-217.294l-22.5-22.5V0H-15" style="stroke-linecap: butt; stroke-linejoin: miter; stroke-miterlimit: 22.926; stroke-dasharray: none; stroke-opacity: 1;" transform="matrix(1.33333 0 0 -1.33333 351.333 632.667)" fill="none" stroke="#F52020" stroke-width="15px" stroke-linecap="butt" stroke-linejoin="miter" stroke-miterlimit="22.926" stroke-dasharray="none" stroke-opacity="" data-original="#000000" opacity="1"></path><g clip-path="url(#c)" transform="matrix(1.33333 0 0 -1.33333 0 682.667)"><path d="M0 0c-8.25 0-15 6.75-15 15v15m52.5 0V15c0-8.249-6.75-15-15-15m-232.294 0c-8.249 0-15 6.75-15 15v15m52.5 0V15c0-8.249-6.75-15-15-15" style="stroke-linecap: butt; stroke-linejoin: miter; stroke-miterlimit: 22.926; stroke-dasharray: none; stroke-opacity: 1;" transform="translate(349.647 7.5)" fill="none" stroke="#F52020" stroke-width="15px" stroke-linecap="butt" stroke-linejoin="miter" stroke-miterlimit="22.926" stroke-dasharray="none" stroke-opacity="" data-original="#000000" opacity="1"></path><path d="M0 0h-78.646l-15.001-15-7.5-52.5m217.294 0-7.5 52.5L93.646 0H15" style="stroke-linecap: butt; stroke-linejoin: miter; stroke-miterlimit: 22.926; stroke-dasharray: none; stroke-opacity: 1;" transform="translate(248.5 187.5)" fill="none" stroke="#F52020" stroke-width="15px" stroke-linecap="butt" stroke-linejoin="miter" stroke-miterlimit="22.926" stroke-dasharray="none" stroke-opacity="" data-original="#000000" opacity="1"></path><path d="M0 0h-142.295" style="stroke-linecap: butt; stroke-linejoin: miter; stroke-miterlimit: 22.926; stroke-dasharray: none; stroke-opacity: 1;" transform="translate(327.148 67.5)" fill="none" stroke="#F52020" stroke-width="15px" stroke-linecap="butt" stroke-linejoin="miter" stroke-miterlimit="22.926" stroke-dasharray="none" stroke-opacity="" data-original="#000000" opacity="1"></path><path d="M0 0c0 20.711 16.79 37.5 37.5 37.5S75 20.711 75 0" style="stroke-linecap: butt; stroke-linejoin: miter; stroke-miterlimit: 22.926; stroke-dasharray: none; stroke-opacity: 1;" transform="translate(178.532 120)" fill="none" stroke="#F52020" stroke-width="15px" stroke-linecap="butt" stroke-linejoin="miter" stroke-miterlimit="22.926" stroke-dasharray="none" stroke-opacity="" data-original="#000000" opacity="1"></path><path d="M0 0h15" style="stroke-linecap: butt; stroke-linejoin: miter; stroke-miterlimit: 2.613; stroke-dasharray: none; stroke-opacity: 1;" transform="translate(319.647 157.501)" fill="none" stroke="#F52020" stroke-width="15px" stroke-linecap="butt" stroke-linejoin="miter" stroke-miterlimit="2.613" stroke-dasharray="none" stroke-opacity="" data-original="#000000" opacity="1"></path><path d="M0 0h-22.5m217.295 0h-22.5" style="stroke-linecap: butt; stroke-linejoin: miter; stroke-miterlimit: 22.926; stroke-dasharray: none; stroke-opacity: 1;" transform="translate(169.852 67.5)" fill="none" stroke="#F52020" stroke-width="15px" stroke-linecap="butt" stroke-linejoin="miter" stroke-miterlimit="22.926" stroke-dasharray="none" stroke-opacity="" data-original="#000000" opacity="1"></path><path d="M0 0h-45m-15 0h-15" style="stroke-linecap: butt; stroke-linejoin: miter; stroke-miterlimit: 2.613; stroke-dasharray: none; stroke-opacity: 1;" transform="translate(482 314.502)" fill="none" stroke="#F52020" stroke-width="15px" stroke-linecap="butt" stroke-linejoin="miter" stroke-miterlimit="2.613" stroke-dasharray="none" stroke-opacity="" data-original="#000000" opacity="1"></path><path d="M0 0h511.999" style="stroke-linecap: butt; stroke-linejoin: miter; stroke-miterlimit: 22.926; stroke-dasharray: none; stroke-opacity: 1;" transform="translate(0 7.5)" fill="none" stroke="#F52020" stroke-width="15px" stroke-linecap="butt" stroke-linejoin="miter" stroke-miterlimit="22.926" stroke-dasharray="none" stroke-opacity="" data-original="#000000" opacity="1"></path></g></g></svg>